<svg width="29" height="21" viewBox="0 0 29 21" fill="none" xmlns="http://www.w3.org/2000/svg">
<path d="M5.69725 3.625L13.5994 10.665C13.8512 10.8892 14.1766 11.0131 14.5138 11.0131C14.8509 11.0131 15.1763 10.8892 15.4281 10.665L23.3316 3.625H5.69725ZM25.5 5.37537L17.2582 12.7193C16.5027 13.3926 15.5259 13.7647 14.5138 13.7647C13.5016 13.7647 12.5248 13.3926 11.7692 12.7193L3.5 5.34925V17.375H25.5V5.37537ZM3.5 0.875H25.5C26.2293 0.875 26.9288 1.16473 27.4445 1.68046C27.9603 2.19618 28.25 2.89565 28.25 3.625V17.375C28.25 18.1043 27.9603 18.8038 27.4445 19.3195C26.9288 19.8353 26.2293 20.125 25.5 20.125H3.5C2.77065 20.125 2.07118 19.8353 1.55546 19.3195C1.03973 18.8038 0.75 18.1043 0.75 17.375V3.625C0.75 2.89565 1.03973 2.19618 1.55546 1.68046C2.07118 1.16473 2.77065 0.875 3.5 0.875V0.875Z" fill="white"/>
</svg>
